<?xml version="1.0" encoding="UTF-8" standalone="no"?>
<svg width="137px" height="137px" viewBox="0 0 137 137" version="1.1" xmlns="http://www.w3.org/2000/svg" xmlns:xlink="http://www.w3.org/1999/xlink" xmlns:sketch="http://www.bohemiancoding.com/sketch/ns">
    <!-- Generator: Sketch 3.2.2 (9983) - http://www.bohemiancoding.com/sketch -->
    <title>Shape</title>
    <desc>Created with Sketch.</desc>
    <defs></defs>
    <g id="Page-1" stroke="none" stroke-width="1" fill="none" fill-rule="evenodd" sketch:type="MSPage">
        <g id="codepen" sketch:type="MSArtboardGroup" transform="translate(-10.000000, -11.000000)" fill="#FFFFFF">
            <path d="M146.896685,57.6054093 C146.865321,57.439365 146.837647,57.2733207 146.793369,57.1109663 C146.765695,57.0131846 146.732487,56.9209378 146.701123,56.8250011 C146.655,56.681096 146.607032,56.5371909 146.54984,56.3969757 C146.509252,56.2991941 146.463129,56.2051023 146.41885,56.1110105 C146.356123,55.9781751 146.291551,55.8471846 146.217754,55.7198839 C146.166097,55.6257921 146.107059,55.5372352 146.049867,55.4468333 C145.970535,55.3250675 145.889359,55.2051466 145.800803,55.0889155 C145.73623,55.0022035 145.669813,54.9191814 145.599706,54.8361592 C145.50746,54.725463 145.407835,54.6203016 145.308209,54.5169851 C145.230723,54.4394978 145.153236,54.3620105 145.07206,54.286368 C144.965054,54.1885864 144.854359,54.0963396 144.738129,54.0077826 C144.649573,53.9395199 144.562862,53.8694123 144.470616,53.8066845 C144.437407,53.7827003 144.407889,53.7550262 144.372835,53.732887 L81.7636618,11.9893474 C79.7877535,10.6702175 77.2104016,10.6702175 75.2344933,11.9893474 L12.62163,53.7310421 C12.5865765,53.7531813 12.5589027,53.7808554 12.5238493,53.8048395 C12.4316033,53.8694123 12.3448921,53.937675 12.256336,54.0059377 C12.141951,54.0963396 12.029411,54.1885864 11.9224057,54.2826782 C11.8412292,54.3564756 11.7637426,54.433963 11.6881009,54.5132953 C11.5847855,54.6166117 11.4888497,54.7217731 11.3947588,54.8324693 C11.3246519,54.9154915 11.2582348,54.9985136 11.1936626,55.0907605 C11.1051065,55.2069915 11.0239301,55.3250675 10.9445986,55.4486782 C10.8874061,55.5390801 10.8302136,55.6276371 10.7767109,55.7217289 C10.7029142,55.8490295 10.638342,55.98002 10.5774597,56.1091656 C10.5331816,56.2032574 10.4852137,56.2991941 10.4464704,56.3951308 C10.3892779,56.535346 10.3394651,56.6792511 10.2933421,56.8231561 C10.2619785,56.9190928 10.22877,57.0131846 10.2029411,57.0998966 C10.160508,57.2622511 10.1291443,57.4264504 10.0996256,57.5943397 C10.0830214,57.6792068 10.0627272,57.7622289 10.0516577,57.848941 C10.0184492,58.1035422 10,58.3581435 10,58.6182796 L10,100.369199 C10,100.62749 10.0184492,100.885781 10.0553476,101.138538 C10.068262,101.230784 10.092246,101.304582 10.1106951,101.393139 C10.1402138,101.559183 10.1660427,101.725228 10.2213903,101.891272 C10.2472192,101.983519 10.2767379,102.075766 10.3136362,102.177237 C10.3597592,102.324832 10.4058822,102.472427 10.4612298,102.607107 C10.4999731,102.699354 10.5534757,102.791601 10.5903741,102.883848 C10.6512564,103.012993 10.7195184,103.142139 10.7933152,103.276819 C10.8449729,103.369066 10.9040103,103.461313 10.9593579,103.54618 C11.0386894,103.675326 11.1254006,103.786022 11.2176466,103.896718 C11.2822188,103.988965 11.3467909,104.062762 11.4205877,104.151319 C11.5146786,104.262016 11.6050796,104.372712 11.7157747,104.470493 C11.7914164,104.544291 11.8633683,104.636538 11.9556142,104.691886 C12.0626195,104.784133 12.1770045,104.87638 12.2876996,104.972316 C12.3762558,105.046114 12.4721915,105.101462 12.5459883,105.173414 C12.5810418,105.191864 12.6013359,105.228763 12.6382343,105.245367 L75.2344933,147.009201 C76.2233699,147.673378 77.3561502,148.005467 78.5,147.999932 C79.6438498,147.994397 80.7766301,147.667843 81.7655067,147.009201 L144.37837,105.267506 C144.413423,105.245367 144.442942,105.219538 144.476151,105.195554 C144.568397,105.130981 144.655108,105.062718 144.743664,104.994456 C144.858049,104.904054 144.970589,104.809962 145.077594,104.714025 C145.158771,104.642073 145.236257,104.56274 145.313744,104.485253 C145.415215,104.381937 145.512995,104.276775 145.605241,104.166079 C145.675348,104.083057 145.741765,104.000035 145.806337,103.911478 C145.894893,103.795247 145.97607,103.675326 146.055401,103.55356 C146.112594,103.465003 146.169786,103.374601 146.223289,103.284199 C146.297086,103.155054 146.361658,103.024063 146.424385,102.891228 C146.468663,102.797136 146.514786,102.703044 146.555375,102.607107 C146.612567,102.465047 146.660535,102.321142 146.706658,102.177237 C146.738021,102.0813 146.77123,101.987209 146.798904,101.891272 C146.841337,101.728917 146.870856,101.562873 146.902219,101.396829 C146.916979,101.311962 146.939118,101.22894 146.948342,101.142228 C146.981551,100.887626 147,100.633025 147,100.372889 L147,58.6293492 C147,58.3692131 146.979706,58.1146119 146.948342,57.8600106 C146.933583,57.7696087 146.905909,57.6958112 146.88746,57.6054093 L146.896685,57.6054093 L146.896685,57.6054093 Z M78.4981551,93.4267019 L57.6782434,79.5011191 L78.4981551,65.5736913 L99.3199117,79.5011191 L78.4981551,93.4267019 L78.4981551,93.4267019 Z M72.6128633,55.3472067 L47.0902529,72.4184067 L26.4880417,58.636729 L72.6128633,27.8871676 L72.6128633,55.3472067 L72.6128633,55.3472067 Z M36.5022624,79.4992741 L21.7761184,89.3493916 L21.7761184,69.6491566 L36.5022624,79.4992741 L36.5022624,79.4992741 Z M47.0902529,86.5875212 L72.6128633,103.656876 L72.6128633,131.116915 L26.4880417,100.363664 L47.0902529,86.5838314 L47.0902529,86.5875212 L47.0902529,86.5875212 Z M84.3852918,103.653186 L109.907902,86.5838314 L130.511958,100.363664 L84.3852918,131.113226 L84.3852918,103.653186 L84.3852918,103.653186 Z M120.495893,79.502964 L135.223882,69.6510016 L135.223882,89.3530815 L120.495893,79.4992741 L120.495893,79.502964 L120.495893,79.502964 Z M109.907902,72.4184067 L84.3852918,55.3490516 L84.3852918,27.8871676 L130.511958,58.636729 L109.907902,72.4184067 L109.907902,72.4184067 Z" id="Shape" sketch:type="MSShapeGroup"></path>
        </g>
    </g>
</svg>