<?xml version="1.0" encoding="UTF-8" standalone="no"?>
<svg width="167px" height="136px" viewBox="0 0 167 136" version="1.1" xmlns="http://www.w3.org/2000/svg" xmlns:xlink="http://www.w3.org/1999/xlink" xmlns:sketch="http://www.bohemiancoding.com/sketch/ns">
    <!-- Generator: Sketch 3.2.2 (9983) - http://www.bohemiancoding.com/sketch -->
    <title>Shape</title>
    <desc>Created with Sketch.</desc>
    <defs></defs>
    <g id="Page-1" stroke="none" stroke-width="1" fill="none" fill-rule="evenodd" sketch:type="MSPage">
        <g id="twitter" sketch:type="MSArtboardGroup" transform="translate(-10.000000, -12.000000)" fill="#FFFFFF">
            <path d="M176.891961,28.4245267 C170.751697,31.1476398 164.152126,32.9882521 157.226413,33.8154555 C164.295447,29.5778718 169.724746,22.8677058 172.280838,14.8721583 C165.664339,18.7960141 158.336874,21.6455212 150.537689,23.1814337 C144.292472,16.5265651 135.392982,12.3691061 125.545537,12.3691061 C106.636095,12.3691061 91.3051827,27.6988899 91.3051827,46.6083316 C91.3051827,49.2919466 91.6076254,51.9055935 92.1921976,54.4120312 C63.7354965,52.9844564 38.5052273,39.3530917 21.6180892,18.6368931 C18.6704011,23.6937807 16.9821387,29.5756147 16.9821387,35.8501729 C16.9821387,47.7289497 23.0264792,58.2094931 32.21487,64.3497576 C26.6016232,64.1714518 21.3224176,62.6310252 16.7067804,60.0670331 C16.7033948,60.2103549 16.7033948,60.3525481 16.7033948,60.4981269 C16.7033948,77.0873364 28.506561,90.9263483 44.1692574,94.0726555 C41.2960515,94.8547183 38.2716242,95.2733983 35.1490159,95.2733983 C32.9427638,95.2733983 30.7974518,95.0578514 28.7063086,94.6594847 C33.0635152,108.261508 45.7085555,118.161993 60.6918844,118.437352 C48.9733571,127.621228 34.2100892,133.094539 18.1682108,133.094539 C15.404471,133.094539 12.6791009,132.932032 10,132.614919 C25.1526065,142.330327 43.1513345,148 62.487356,148 C125.466541,148 159.907771,95.8252434 159.907771,50.5784567 C159.907771,49.094456 159.873915,47.6172264 159.808461,46.149025 C166.497185,41.322355 172.30228,35.2915566 176.891961,28.4245267 L176.891961,28.4245267 Z" id="Shape" sketch:type="MSShapeGroup"></path>
        </g>
    </g>
</svg>