<?xml version="1.0" encoding="UTF-8" standalone="no"?>
<svg width="20px" height="14px" viewBox="0 0 20 14" version="1.1" xmlns="http://www.w3.org/2000/svg" xmlns:xlink="http://www.w3.org/1999/xlink" xmlns:sketch="http://www.bohemiancoding.com/sketch/ns">
    <!-- Generator: Sketch 3.2.2 (9983) - http://www.bohemiancoding.com/sketch -->
    <title>icon-menu</title>
    <desc>Created with Sketch.</desc>
    <defs></defs>
    <g id="Page-1" stroke="none" stroke-width="1" fill="none" fill-rule="evenodd" sketch:type="MSPage">
        <g id="icon-menu" sketch:type="MSArtboardGroup" fill="#F8F9FA">
            <path d="M19.0939227,1.60621503 C19.0939227,2.3098077 18.6918697,2.81237389 18.2898167,2.81237389 L1.50410591,2.81237389 C1.00153972,2.81237389 0.7,2.20929446 0.7,1.60621503 L0.7,1.60621503 C0.7,0.90262236 1.10205295,0.400056167 1.50410591,0.400056167 L18.1893035,0.400056167 C18.6918697,0.299542928 19.0939227,0.90262236 19.0939227,1.60621503 L19.0939227,1.60621503 L19.0939227,1.60621503 Z" id="Shape" sketch:type="MSShapeGroup"></path>
            <path d="M19.0939227,6.73239019 C19.0939227,7.43598286 18.6918697,7.93854906 18.2898167,7.93854906 L1.50410591,7.93854906 C1.00153972,7.93854906 0.7,7.33546963 0.7,6.73239019 L0.7,6.73239019 C0.7,6.02879752 1.10205295,5.52623133 1.50410591,5.52623133 L18.1893035,5.52623133 C18.6918697,5.42571809 19.0939227,6.02879752 19.0939227,6.73239019 L19.0939227,6.73239019 L19.0939227,6.73239019 Z" id="Shape" sketch:type="MSShapeGroup"></path>
            <path d="M19.0939227,11.7580521 C19.0939227,12.4616448 18.6918697,12.964211 18.2898167,12.964211 L1.50410591,12.964211 C1.00153972,12.964211 0.7,12.3611316 0.7,11.7580521 L0.7,11.7580521 C0.7,11.0544595 1.10205295,10.5518933 1.50410591,10.5518933 L18.1893035,10.5518933 C18.6918697,10.5518933 19.0939227,11.1549727 19.0939227,11.7580521 L19.0939227,11.7580521 L19.0939227,11.7580521 Z" id="Shape" sketch:type="MSShapeGroup"></path>
        </g>
    </g>
</svg>