<?xml version="1.0" encoding="UTF-8" standalone="no"?>
<svg width="153px" height="153px" viewBox="0 0 153 153" version="1.1" xmlns="http://www.w3.org/2000/svg" xmlns:xlink="http://www.w3.org/1999/xlink" xmlns:sketch="http://www.bohemiancoding.com/sketch/ns">
    <!-- Generator: Sketch 3.2.2 (9983) - http://www.bohemiancoding.com/sketch -->
    <title>Dribbble</title>
    <desc>Created with Sketch.</desc>
    <defs></defs>
    <g id="Page-1" stroke="none" stroke-width="1" fill="none" fill-rule="evenodd" sketch:type="MSPage">
        <g id="dribbble" sketch:type="MSArtboardGroup" transform="translate(-4.000000, -3.000000)" fill="#FFFFFF">
            <path d="M80.4966,3 C38.2465,3.0034 4,37.2516 4,79.5034 C4,121.7484 38.2465,156 80.4966,156 C122.7467,156 156.9949,121.7484 157,79.5034 C156.9949,37.2516 122.7467,3.0034 80.4966,3 L80.4966,3 Z M127.3707,42.6644 C134.8337,52.1419 139.507,63.8787 140.0969,76.695 C131.4592,74.8624 123.3009,73.9699 115.6934,73.9699 L115.6934,73.9682 L115.6373,73.9682 C109.5139,73.9682 103.7645,74.5241 98.3483,75.4846 C97.0308,72.258 95.698,69.1589 94.3533,66.1907 C106.4165,60.8986 117.9952,53.3642 127.3707,42.6644 L127.3707,42.6644 Z M80.4966,19.8181 C94.576,19.8181 107.4892,24.7396 117.713,32.9336 C109.8896,42.3006 99.5621,49.0853 88.405,53.8759 C80.5663,38.717 72.9911,27.8727 67.8129,21.2427 C71.9116,20.3332 76.1429,19.8181 80.4966,19.8181 L80.4966,19.8181 Z M54.1347,26.0401 C58.2776,30.9327 66.5719,41.6954 75.4306,58.4999 C57.414,63.8634 39.2716,65.1231 28.2947,65.1197 C27.9819,65.1197 27.6725,65.1197 27.3682,65.1163 L27.358,65.1163 C25.5101,65.1163 23.9206,65.0874 22.5929,65.0466 C26.8752,47.9106 38.6154,33.719 54.1347,26.0401 L54.1347,26.0401 Z M20.813,79.5034 C20.813,79.2229 20.8232,78.9373 20.8402,78.6432 C22.5436,78.7061 24.7298,78.7605 27.3597,78.7605 L27.375,78.7605 C39.3719,78.6823 60.3193,77.6793 81.5472,70.9779 C82.7049,73.5075 83.849,76.1425 84.9829,78.8778 C70.8066,83.6191 59.641,91.1722 51.3824,98.6947 C43.4332,105.9367 38.0612,113.1073 34.923,117.8962 C26.1408,107.499 20.8181,94.137 20.813,79.5034 L20.813,79.5034 Z M80.4966,139.1887 C67.2145,139.1887 54.9728,134.7959 45.0414,127.4247 C47.1528,123.9482 51.6782,117.2757 58.8845,110.3788 C66.2999,103.2728 76.5356,95.9594 89.8993,91.6057 C94.4417,104.3387 98.5523,118.8958 101.6837,135.2804 C95.0877,137.793 87.9596,139.1887 80.4966,139.1887 L80.4966,139.1887 Z M114.2756,128.5909 C111.2479,113.772 107.4399,100.41 103.2596,88.4845 C107.1373,87.9286 111.2071,87.6141 115.5013,87.6141 L115.6543,87.6141 L115.6645,87.6141 L115.6747,87.6141 C122.7943,87.6141 130.616,88.4998 139.099,90.4276 C136.1631,106.2087 127.0222,119.8002 114.2756,128.5909 L114.2756,128.5909 Z" id="Dribbble" sketch:type="MSShapeGroup"></path>
        </g>
    </g>
</svg>