<?xml version="1.0" encoding="UTF-8" standalone="no"?>
<svg width="213px" height="133px" viewBox="0 0 213 133" version="1.1" xmlns="http://www.w3.org/2000/svg" xmlns:xlink="http://www.w3.org/1999/xlink" xmlns:sketch="http://www.bohemiancoding.com/sketch/ns">
    <!-- Generator: Sketch 3.2.2 (9983) - http://www.bohemiancoding.com/sketch -->
    <title>Behance</title>
    <desc>Created with Sketch.</desc>
    <defs></defs>
    <g id="Page-1" stroke="none" stroke-width="1" fill="none" fill-rule="evenodd" sketch:type="MSPage">
        <g id="behance" sketch:type="MSArtboardGroup" transform="translate(-11.000000, -13.000000)" fill="#FFFFFF">
            <path d="M203.355991,31.821875 L149.983464,31.821875 L149.983464,18.517125 L203.358358,18.517125 L203.358358,31.821875 L203.355991,31.821875 Z M114.455422,86.375625 C117.898887,91.7265 119.619437,98.226875 119.619437,105.855375 C119.619437,113.7475 117.67879,120.825 113.73123,127.078375 C111.220222,131.218 108.103353,134.711625 104.356958,137.523625 C100.137233,140.77975 95.1412506,143.009875 89.3997752,144.202125 C83.6393667,145.39675 77.403263,146 70.6867308,146 L11,146 L11,13 L75.0058538,13 C91.1392576,13.263625 102.577242,17.95425 109.331641,27.166875 C113.383333,32.817 115.392613,39.59525 115.392613,47.4755 C115.392613,55.6075 113.359667,62.112625 109.267741,67.057375 C106.991031,69.829 103.628032,72.348875 99.1763765,74.624125 C105.918942,77.10125 111.035623,81.003375 114.455422,86.375625 L114.455422,86.375625 Z M41.5651914,65.43525 L69.6099083,65.43525 C75.3726835,65.43525 80.0326031,64.335625 83.6204335,62.13875 C87.2058973,59.94425 88.9950793,56.0445 88.9950793,50.44425 C88.9950793,44.257375 86.6260699,40.151 81.8762178,38.175 C77.793759,36.80225 72.5705784,36.0945 66.2327091,36.0945 L41.5651914,36.0945 L41.5651914,65.43525 L41.5651914,65.43525 Z M91.6954187,103.95775 C91.6954187,97.0465 88.8814804,92.27275 83.2654371,89.710125 C80.1249022,88.251875 75.6945469,87.5085 70.0122376,87.45625 L41.5651914,87.45625 L41.5651914,122.898375 L69.572042,122.898375 C75.3253506,122.898375 79.7793723,122.143125 82.9932732,120.566125 C88.7891814,117.66625 91.6954187,112.149125 91.6954187,103.95775 L91.6954187,103.95775 Z M223.155325,82.3215 C223.801418,86.6725 224.092515,92.98525 223.974183,101.236 L154.854014,101.236 C155.237411,110.812 158.529411,117.507125 164.777348,121.338 C168.542676,123.7415 173.110297,124.91475 178.458909,124.91475 C184.096253,124.91475 188.694639,123.482625 192.23277,120.542375 C194.161584,118.984375 195.8632,116.78275 197.332886,114.00875 L222.66543,114.00875 C222.00277,119.66125 218.952167,125.396875 213.471023,131.2275 C204.977142,140.487625 193.063462,145.1355 177.76785,145.1355 C165.129977,145.1355 153.992556,141.21675 144.324821,133.410125 C134.687851,125.577375 129.850434,112.871125 129.850434,95.24625 C129.850434,78.718625 134.19559,66.069375 142.914302,57.262875 C151.661413,48.442125 162.955033,44.05075 176.875625,44.05075 C185.125742,44.05075 192.5641,45.530375 199.1978,48.50625 C205.814933,51.4845 211.279511,56.17275 215.586801,62.61375 C219.482295,68.287625 221.98857,74.847375 223.155325,82.3215 L223.155325,82.3215 Z M198.220377,84.803375 C197.754148,78.181875 195.550804,73.170625 191.586677,69.745875 C187.65095,66.311625 182.7378,64.587375 176.875625,64.587375 C170.49279,64.587375 165.567806,66.430375 162.065175,70.05225 C158.541244,73.667 156.347366,78.580875 155.448042,84.803375 L198.220377,84.803375 L198.220377,84.803375 Z" id="Behance" sketch:type="MSShapeGroup"></path>
        </g>
    </g>
</svg>