<?xml version="1.0" encoding="UTF-8" standalone="no"?>
<svg width="140px" height="134px" viewBox="0 0 140 134" version="1.1" xmlns="http://www.w3.org/2000/svg" xmlns:xlink="http://www.w3.org/1999/xlink" xmlns:sketch="http://www.bohemiancoding.com/sketch/ns">
    <!-- Generator: Sketch 3.2.2 (9983) - http://www.bohemiancoding.com/sketch -->
    <title>LinkedIn</title>
    <desc>Created with Sketch.</desc>
    <defs></defs>
    <g id="Page-1" stroke="none" stroke-width="1" fill="none" fill-rule="evenodd" sketch:type="MSPage">
        <g id="linkedin" sketch:type="MSArtboardGroup" transform="translate(-10.000000, -11.000000)" fill="#FFFFFF">
            <path d="M150,93.1560233 L150,145 L119.993333,145 L119.993333,96.6275581 C119.993333,84.4756279 115.653333,76.1832093 104.790889,76.1832093 C96.4997778,76.1832093 91.5655556,81.7722558 89.3955556,87.1774419 C88.6037778,89.111093 88.4,91.8004419 88.4,94.5069302 L88.4,145 L58.384,145 C58.384,145 58.7884444,63.0730233 58.384,54.5842791 L88.3984444,54.5842791 L88.3984444,67.3999767 C88.3377778,67.4965814 88.2584444,67.5994186 88.2008889,67.692907 L88.3984444,67.692907 L88.3984444,67.3999767 C92.3853333,61.2484419 99.5066667,52.4605349 115.446444,52.4605349 C135.195778,52.4605349 150,65.3837442 150,93.1560233 L150,93.1560233 Z M26.9851111,11 C16.7168889,11 10,17.7467442 10,26.6187907 C10,35.2976279 16.5224444,42.2484884 26.5868889,42.2484884 L26.7875556,42.2484884 C37.2548889,42.2484884 43.7648889,35.299186 43.7648889,26.6187907 C43.5673333,17.7467442 37.2548889,11 26.9851111,11 L26.9851111,11 Z M11.7826667,145 L41.7877778,145 L41.7877778,54.5842791 L11.7826667,54.5842791 L11.7826667,145 L11.7826667,145 Z" id="LinkedIn" sketch:type="MSShapeGroup"></path>
        </g>
    </g>
</svg>