<?xml version="1.0" encoding="UTF-8" standalone="no"?>
<svg width="181px" height="140px" viewBox="0 0 181 140" version="1.1" xmlns="http://www.w3.org/2000/svg" xmlns:xlink="http://www.w3.org/1999/xlink" xmlns:sketch="http://www.bohemiancoding.com/sketch/ns">
    <!-- Generator: Sketch 3.2.2 (9983) - http://www.bohemiancoding.com/sketch -->
    <title>Github__x28_alt_x29_</title>
    <desc>Created with Sketch.</desc>
    <defs></defs>
    <g id="Page-1" stroke="none" stroke-width="1" fill="none" fill-rule="evenodd" sketch:type="MSPage">
        <g id="github" sketch:type="MSArtboardGroup" transform="translate(-8.000000, -9.000000)" fill="#FFFFFF">
            <path d="M140.1481,9.61723101 C142.5011,14.9607532 144.025522,23.8357866 141.750956,30.3336866 C151.052344,38.2755643 154.248,57.582231 149.7592,73.3593977 C163.016444,74.3709866 178.805678,72.8727088 189,76.9411866 C179.471356,75.7164199 166.457456,73.3131421 154.167556,74.1497643 C151.838689,74.3086421 148.387622,74.0612754 148.556556,77.3373754 C162.785167,78.4555532 176.921267,79.6702643 188.603811,83.3164088 C177.0178,81.4239532 162.9541,78.542031 148.556556,78.1398088 C142.6097,89.8746421 130.643589,95.6425088 114.122311,96.8572199 C115.898122,100.720564 119.298911,102.192698 120.1295,108.409042 C121.368344,117.696353 118.190789,131.297498 121.326111,137.487698 C122.830422,140.454087 125.281967,140.53252 126.9351,143.068531 C122.888744,147.856987 112.855311,142.531564 111.715011,137.487698 C109.7582,128.849975 114.695478,115.457987 109.315756,109.603642 C109.695856,119.023687 107.087444,132.256798 109.715967,140.673298 C110.751689,143.983587 113.742211,145.260642 112.919667,148.245131 C94.1117556,150.155687 101.971178,123.902642 98.8982,108.407031 C96.0605222,108.608142 97.3074111,112.656509 97.2973556,114.384053 C97.2169111,129.515653 100.394467,150.27032 84.0843556,148.245131 C83.6077222,145.065564 86.2724444,143.983587 87.2880556,141.079542 C90.2624889,132.564498 86.7309778,119.878409 88.0945111,109.603642 C81.8701222,114.295564 88.7481222,130.680087 84.8908111,139.080498 C82.6685333,143.915209 75.5069667,146.018831 70.0749556,143.860909 C70.7828667,140.26102 74.4994,140.842231 76.0761111,137.487698 C78.2802889,132.811864 76.0922,126.076653 76.8785444,119.164464 C65.3568889,121.463164 56.4195111,118.83062 52.0453444,111.594642 C50.0885333,108.346698 49.6038556,104.515531 47.2387889,101.637631 C44.8857889,98.7577199 41.1250111,98.3695754 40.0349889,94.470031 C54.3038222,91.0350532 54.8508444,109.155164 67.6656444,109.603642 C71.5953556,109.746431 73.6386444,108.469375 77.2747333,107.614653 C78.2923556,103.045409 80.4703889,99.6385866 83.6821333,97.2513977 C67.7360333,95.0693421 54.5672778,90.1039088 48.4434444,78.1377977 C33.9473556,78.8517421 20.6820667,80.786431 8.39618889,83.7105866 C19.5478,79.6602088 33.3017889,78.2081866 48.0452444,77.7315532 C47.1764444,72.5107088 39.5603667,73.9466421 34.8322444,74.1477532 C26.0457,74.5379088 14.9845889,75.6299421 8,76.9411866 C18.1239333,73.3312421 32.3304222,73.781731 46.0462,73.7535754 C41.8510222,60.6009088 43.3050556,39.7074754 52.4536,31.9264866 C49.8612778,25.3923866 50.6657222,14.7053421 54.0544444,9.61723101 C64.2688778,10.0757643 70.4631,14.5303754 76.8805556,18.7818643 C84.8385222,16.5193643 93.2067556,15.3931421 104.111,15.9924532 C108.696333,16.2458532 113.466689,18.3072421 116.919767,17.9814421 C120.308489,17.6636866 124.043122,13.8606754 127.3333,12.4086532 C131.618978,10.5161977 135.245011,9.79420878 140.1481,9.61723101 L140.1481,9.61723101 Z" id="Github__x28_alt_x29_" sketch:type="MSShapeGroup"></path>
        </g>
    </g>
</svg>