<?xml version="1.0" encoding="utf-8"?>
<!-- Generator: Adobe Illustrator 18.1.1, SVG Export Plug-In . SVG Version: 6.00 Build 0)  -->
<!DOCTYPE svg PUBLIC "-//W3C//DTD SVG 1.1//EN" "http://www.w3.org/Graphics/SVG/1.1/DTD/svg11.dtd">
<svg version="1.1" xmlns="http://www.w3.org/2000/svg" xmlns:xlink="http://www.w3.org/1999/xlink" x="0px" y="0px"
	 viewBox="0 0 800 800" enable-background="new 0 0 800 800" xml:space="preserve">
<g id="editable" display="none">
	<circle display="inline" fill="#FFFFFF" stroke="#58595B" stroke-miterlimit="10" cx="400" cy="406.6" r="281.8"/>
	<g display="inline">
		<path fill="#58595B" d="M398.8,125.3c-155.4,0.4-281,126.6-280.6,282c0.4,155.4,126.6,281,282,280.6
			c155.4-0.4,281-126.6,280.6-282C680.4,250.6,554.2,124.9,398.8,125.3z M400.2,682.3c-152.3,0.4-276-122.8-276.4-275.1
			c-0.4-152.3,122.8-276,275.1-276.4c152.3-0.4,276,122.8,276.4,275.1C675.6,558.2,552.4,682,400.2,682.3z"/>
	</g>
	<path display="inline" fill="none" stroke="#58595B" stroke-miterlimit="10" d="M666.3,437c-16.8,147.3-149.8,253.1-297.2,236.4
		C221.8,656.6,116,523.5,132.8,376.2c16.8-147.3,149.8-253.1,297.1-236.4C577.2,156.6,683,289.7,666.3,437z"/>
	<path id="SVGID_x5F_1_x5F_" display="inline" fill="none" d="M207.7,403.1c0.8-106.1,87.5-191.5,193.7-190.7
		C507.5,213.3,592.9,300,592,406.1c-0.8,106.1-87.5,191.5-193.7,190.6C292.3,595.9,206.9,509.2,207.7,403.1z"/>
	<text display="inline">	<textPath  xlink:href="#SVGID_x5F_1_x5F_" startOffset="100%">
<tspan  fill="#58595B" stroke="#58595B" stroke-miterlimit="10" font-family="'SourceSansPro-Semibold'" font-size="80.6467" letter-spacing="70">PATRICK MARICH</tspan>	</textPath>
</text>
	<g display="inline">
		<path id="SVGID_x5F_2_x5F_" fill="none" d="M156.5,401.3c0.7,134.2,110.1,242.4,244.3,241.7c134.2-0.7,242.4-110.1,241.7-244.3
			C641.8,264.5,532.4,156.3,398.2,157C264,157.7,155.8,267.1,156.5,401.3z"/>
		<text>		<textPath  xlink:href="#SVGID_x5F_2_x5F_" startOffset="103.2553%">
<tspan  fill="#58595B" font-family="'SourceSansPro-Bold'" font-size="59.286" letter-spacing="50">WEB DESIGN</tspan>		</textPath>
</text>
	</g>
	<g display="inline">
		<path fill="#58595B" d="M405.3,314.8c-11.5,0.4-28.6,6.3-32.1,17.8l0,0c-3-10-21.4-16.4-38.3-10.1c-1.1,0.2-2.1,0.4-2.4,0.5
			c-3.3,1-4.6,3-3.7,6c0.9,3.2,3.3,4.3,7,3.2c1-0.3,2.3-0.8,4-1.5c0.1,0,0.1,0,0.2-0.1c15.3-4.2,22.3,1.8,25.6,8l1.9,60l1.1,35.5
			l-19.3,0.6c-0.4,0-0.8,0-1.1,0c-0.4,0-0.7,0-1,0.1l-0.4,0l0,0.1c-1.3,0.4-2,1.3-1.9,2.8c0,1.8,1.1,2.8,3.1,2.7
			c0.3,0,2.1-0.2,2.6-0.3c0.8-0.2,2.1-0.4,3-0.6l15.2-0.5l1.2,38.5c0,0.6,4.6,22.2-30.4,16.1c-1.2-0.2-2.7-0.5-4.2-1
			c-1.7-0.6-3.1-1-4.1-1.2c-3.8-0.8-6,0.4-6.7,3.6c-0.7,3.1,0.7,5,4.1,5.8c0.5,0.1,3.5,0.5,4.5,0.5c0.6,0,1.1,0,1.5,0.1
			c0.8,0.2,1.6,0.4,2.4,0.5c0,0,0.1,0,0.1,0l0,0c20.9,4.1,41.1-3.6,41.5-12.2l0.1,0c0.9,8.8,22.3,15.3,43.2,9.3
			c1.2-0.1,3.6-0.6,4.1-0.7c3.3-1,4.6-3,3.7-6c-0.9-3.2-3.3-4.3-7-3.2c-1,0.3-2.3,0.8-4,1.5c-1.7,0.7-3.5,1.1-4.8,1.4l0,0
			c-31.2,5.8-30-15-30-15l-1.2-38.5l14.3-0.4c0.9,0.1,2.2,0.3,3,0.4c0.6,0.1,2.3,0.2,2.6,0.2c2-0.1,3-1.1,2.9-2.9
			c-0.1-1.6-0.9-2.5-2.5-2.7l0,0l0,0c-0.3,0-0.6-0.1-1,0c-0.3,0-0.7,0-1.1,0.1l-18.3,0.6l-1.1-34.2c6.6,6.7,14.9,9.9,24.9,9.5
			c12.5-0.4,22.3-5.2,29.4-14.4c7.1-9.2,10.5-21.3,10-36.4c-0.4-14-4.3-25-11.6-33C426.7,317.1,417.2,314.5,405.3,314.8z
			 M425.1,387.2c-4.5,6.4-11.1,9.7-19.6,10c-5.7,0.2-10.6-1.1-14.5-3.8c-4-2.7-6.7-5.9-8.1-9.5c-1.4-3.6-2.3-9.4-2.5-17.3
			c0-0.6,0-1.4-0.1-2.5c0.1-1.3,0.1-2.2,0.1-2.7c-0.1-6.6,0.3-12.3,1.3-17c1-5.3,3.7-9.7,8.1-13.3c4.4-3.6,9.4-5.5,15.1-5.7
			c16.9-0.5,25.8,11.1,26.5,34.8C431.7,371.9,429.6,380.8,425.1,387.2z"/>
		<path fill="#58595B" d="M465.2,378.4c-2.8,0.1-5.2,1.2-7.1,3.2c-1.9,2.1-2.8,4.5-2.7,7.3c0.1,2.8,1.1,5.2,3.2,7.2
			c2,1.9,4.4,2.9,7.3,2.8c2.8-0.1,5.2-1.2,7.1-3.2c1.9-2.1,2.8-4.5,2.7-7.3c-0.1-2.8-1.1-5.2-3.2-7.2
			C470.4,379.3,468,378.3,465.2,378.4z"/>
	</g>
	<circle display="inline" fill="none" stroke="#58595B" stroke-miterlimit="10" cx="399.5" cy="408.8" r="160.5"/>
</g>
<g id="expanded">
	<g>
		<circle fill="#FFFFFF" cx="400" cy="406.6" r="281.8"/>
		<path fill="#58595B" d="M400.4,688.9c-10.7,0-21.6-0.6-32.3-1.8c-74.9-8.5-142-45.7-189-104.7S111,449.6,119.5,374.6
			c7.9-69.3,41-132.9,93.1-179.2c51.8-45.9,118.2-71.2,187-71.2c10.7,0,21.6,0.6,32.3,1.8c74.9,8.5,142,45.7,189,104.7
			c46.9,59,68.1,132.8,59.5,207.7c-7.9,69.3-41,132.9-93.1,179.2C535.6,663.6,469.2,688.9,400.4,688.9z M399.7,125.3
			c-68.6,0-134.8,25.2-186.3,70.9c-52,46.1-84.9,109.5-92.8,178.6c-8.5,74.7,12.6,148.1,59.3,207c46.8,58.8,113.6,95.9,188.3,104.4
			c10.7,1.2,21.5,1.8,32.2,1.8c68.6,0,134.8-25.2,186.3-70.9c52-46.1,84.9-109.5,92.8-178.6c8.5-74.7-12.6-148.1-59.3-207
			c-46.8-58.8-113.6-95.9-188.3-104.4C421.2,125.9,410.4,125.3,399.7,125.3z"/>
	</g>
	<g opacity="0.8">
		<g>
			<path fill="#58595B" d="M398.8,125.3c-155.4,0.4-281,126.6-280.6,282c0.4,155.4,126.6,281,282,280.6
				c155.4-0.4,281-126.6,280.6-282C680.4,250.6,554.2,124.9,398.8,125.3z M400.2,682.3c-152.3,0.4-276-122.8-276.4-275.1
				c-0.4-152.3,122.8-276,275.1-276.4c152.3-0.4,276,122.8,276.4,275.1C675.6,558.2,552.4,682,400.2,682.3z"/>
		</g>
	</g>
	<g opacity="0.8">
		<path fill="#58595B" d="M399.8,675.6c-10.2,0-20.6-0.6-30.8-1.8c-71.4-8.1-135.3-43.6-180-99.8c-44.7-56.2-64.9-126.5-56.7-197.9
			c7.5-66,39-126.7,88.7-170.7c49.3-43.7,112.6-67.8,178.2-67.8c10.2,0,20.6,0.6,30.8,1.8c71.4,8.1,135.3,43.6,180.1,99.8
			c44.7,56.2,64.9,126.5,56.7,197.9c-7.5,66-39,126.7-88.7,170.7C528.7,651.5,465.4,675.6,399.8,675.6z M399.2,138.6
			c-65.3,0-128.4,24-177.5,67.6c-49.5,43.9-80.9,104.3-88.4,170.1c-8.1,71.1,12,141.1,56.5,197.2c44.6,56,108.3,91.3,179.4,99.4
			c10.2,1.2,20.5,1.7,30.7,1.7c65.3,0,128.4-24,177.5-67.6c49.5-43.9,80.9-104.3,88.4-170.1c8.1-71.1-12-141.1-56.5-197.2
			c-44.6-56-108.3-91.3-179.4-99.4C419.7,139.2,409.3,138.6,399.2,138.6z"/>
	</g>
	<g opacity="0.8">
		<path fill="#58595B" stroke="#58595B" stroke-miterlimit="10" d="M154.4,400.5l1.5-17.7c1-11.5,5.7-19.6,17.9-18.5
			c11.7,1,16.3,10.1,15.3,21.4l-0.7,8.4l19.3,1.6L207,405L154.4,400.5z M181.7,385.9c0.7-7.9-2.1-11.8-8.6-12.4
			c-6.6-0.6-9.1,3.2-9.7,10.8l-0.6,7.6l18.3,1.6L181.7,385.9z"/>
		<path fill="#58595B" stroke="#58595B" stroke-miterlimit="10" d="M206.5,331.7l-5.5,16.8l12.3,8.4l-3,9.1l-44.7-32.9l3.4-10.4
			l55.5,0.2l-3.1,9.4L206.5,331.7z M198.9,331.4l-6.7-0.3c-5.8-0.2-12-0.6-18-0.9l-0.1,0.3c5.1,3.2,10.3,6.5,15.1,9.9l5.5,3.8
			L198.9,331.4z"/>
		<path fill="#58595B" stroke="#58595B" stroke-miterlimit="10" d="M194.9,285.5l-7.9,13l-6.8-4.1l20.7-34l6.8,4.1l-7.9,13
			l38.3,23.3l-4.9,8L194.9,285.5z"/>
		<path fill="#58595B" stroke="#58595B" stroke-miterlimit="10" d="M273.6,259.3l-22.6-6.8l-5.7,5.6l14.4,14.8l-6.7,6.5l-36.9-37.7
			l12.7-12.4c7.8-7.7,16.6-10.8,24.8-2.4c5.6,5.8,6,12.2,3,18.2l24.4,6.9L273.6,259.3z M240.1,252.8l5.3-5.2
			c5.2-5.1,5.8-10,1.6-14.2c-4.2-4.3-8.5-3.1-13.7,2l-5.3,5.2L240.1,252.8z"/>
		<path fill="#58595B" stroke="#58595B" stroke-miterlimit="10" d="M262.7,201.6l7.8-5.1l28.7,44.2l-7.8,5.1L262.7,201.6z"/>
		<path fill="#58595B" stroke="#58595B" stroke-miterlimit="10" d="M313.2,174.4c6-2.4,12-1.4,16.4,0.6l-2.6,7.3
			c-3.5-1.5-6.9-1.9-10.7-0.4c-8,3.2-11.1,12.3-6.7,23.3c4.5,11.2,12.5,15.8,20.6,12.5c4.3-1.7,6.8-4.8,8.4-9l6.9,3.4
			c-2.1,6.2-6.2,10.7-12.4,13.2c-12.4,5-25.8-0.1-32.3-16.3C294.4,193,300.6,179.4,313.2,174.4z"/>
		<path fill="#58595B" stroke="#58595B" stroke-miterlimit="10" d="M352.3,163.7l9.3-1.1l2.9,23.8l0.2,0l15.7-26.1l10.2-1.3
			l-13.6,22.4l22.8,29.6l-10.2,1.3l-17.1-22.9l-6.4,10.3l1.9,15.3l-9.3,1.1L352.3,163.7z"/>
		<path fill="#58595B" stroke="#58595B" stroke-miterlimit="10" d="M443.5,162.4l9.9,2.8l2.2,27.6l0.6,10.6l0.3,0.1l6-8.7l15.9-22.5
			l9.9,2.8l-14.2,50.8l-8.5-2.4l6.5-23.2c1.3-4.7,3.9-11.3,5.7-15.8l-0.3-0.1l-7.4,10.4L455,215.3l-4.1-1.2l-2.3-25.5l-0.8-12.7
			l-0.3-0.1c-0.9,4.8-2.1,11.7-3.4,16.5l-6.5,23.2l-8.2-2.3L443.5,162.4z"/>
		<path fill="#58595B" stroke="#58595B" stroke-miterlimit="10" d="M516,233.7l-15-9.3l-11,10l-8.2-5.1l42.5-35.7l9.3,5.8
			l-13.2,53.9L512,248L516,233.7z M518.1,226.3l1.8-6.5c1.6-5.6,3.4-11.6,5.1-17.3l-0.3-0.2c-4.3,4.2-8.8,8.5-13.2,12.3l-5,4.5
			L518.1,226.3z"/>
		<path fill="#58595B" stroke="#58595B" stroke-miterlimit="10" d="M546.6,280l7.1-22.5l-5.5-5.8L533.2,266l-6.5-6.8l38.1-36.4
			l12.3,12.8c7.6,7.9,10.6,16.7,2.1,24.9c-5.8,5.6-12.2,5.9-18.2,2.8l-7.2,24.3L546.6,280z M553.5,246.6l5.1,5.4
			c5,5.2,9.9,5.9,14.2,1.8c4.4-4.2,3.2-8.4-1.8-13.7l-5.1-5.4L553.5,246.6z"/>
		<path fill="#58595B" stroke="#58595B" stroke-miterlimit="10" d="M604.4,269.8l5,7.9l-44.6,28.2l-5-7.9L604.4,269.8z"/>
		<path fill="#58595B" stroke="#58595B" stroke-miterlimit="10" d="M631,320.6c2.3,6,1.3,12-0.8,16.4l-7.3-2.7
			c1.5-3.5,2-6.9,0.5-10.7c-3.1-8-12.1-11.2-23.2-6.9c-11.2,4.3-15.9,12.3-12.7,20.5c1.7,4.4,4.7,6.9,8.9,8.5l-3.5,6.9
			c-6.1-2.2-10.7-6.3-13.1-12.6c-4.8-12.5,0.4-25.8,16.7-32.1C612.7,301.6,626.2,307.9,631,320.6z"/>
		<path fill="#58595B" stroke="#58595B" stroke-miterlimit="10" d="M641.6,360.3l0.9,9.3l-21.1,2.1l2.1,21.2l21.1-2.1l0.9,9.3
			l-52.5,5.2l-0.9-9.3l23.3-2.3l-2.1-21.2l-23.3,2.3l-0.9-9.3L641.6,360.3z"/>
	</g>
	<g opacity="0.8">
		<path fill="#58595B" d="M251.6,542.9l6.9,5.7l-9.5,15.6c-2.2,3.4-4.3,6.9-6.5,10.4l0.2,0.2c3.2-2.7,6.4-5.4,9.5-8l14.7-11.3
			l5.7,4.7l-8.3,16.6c-1.9,3.5-3.9,7.2-6,10.9l0.2,0.2c3-2.9,6-5.7,9-8.4l13.6-12.2l6.4,5.3L257.6,598l-8.5-7l8.2-15.9
			c1.4-2.7,3-5.4,4.5-7.9l-0.2-0.2c-2.2,1.9-4.5,4-6.9,5.9l-14,11.2l-8.3-6.9L251.6,542.9z"/>
		<path fill="#58595B" d="M292.8,574.7l21.4,11.5l-3.5,6.5l-13.6-7.3l-3.7,6.8l11.6,6.2l-3.4,6.4l-11.6-6.2l-4.2,7.8l14.2,7.6
			l-3.5,6.5l-21.9-11.7L292.8,574.7z"/>
		<path fill="#58595B" d="M322.3,589.7l12.5,4.2c7.7,2.5,12.9,6.6,10.5,13.6c-1.1,3.3-4.2,6.2-8.8,5.9l-0.1,0.2
			c4.9,2.7,6.8,6.4,5.1,11.3c-2.5,7.5-9.9,8.7-17.9,6l-13.6-4.5L322.3,589.7z M325.1,624.3c4.5,1.5,7.4,0.6,8.5-2.7
			c1.1-3.2-0.8-5.4-5.3-6.9l-4.6-1.5l-3.2,9.6L325.1,624.3z M329.5,608.6c4.1,1.3,6.4,0.2,7.3-2.6c0.9-2.8-0.6-4.5-4.4-5.8l-3.9-1.3
			l-2.8,8.4L329.5,608.6z"/>
		<path fill="#58595B" d="M371.1,602.9l10.9,0.7c11.8,0.8,19,7.2,18.1,20.4c-0.9,13.2-8.9,18.9-20.2,18.2l-11.4-0.8L371.1,602.9z
			 M379.4,635.1c6.5,0.4,11.2-2.4,11.8-11.7c0.6-9.2-3.6-12.4-10.1-12.8l-1.7-0.1l-1.7,24.5L379.4,635.1z"/>
		<path fill="#58595B" d="M409.3,604.5l24.1-2.5l0.8,7.3l-15.4,1.6l0.8,7.7l13.1-1.4l0.8,7.3l-13.1,1.4l0.9,8.8l16-1.7l0.8,7.3
			l-24.7,2.6L409.3,604.5z"/>
		<path fill="#58595B" d="M451.9,626.4c3.3,1.6,7.1,2.2,10.2,1.4c3.5-1,4.8-2.8,4.2-5c-0.6-2.3-3-2.5-6.6-3l-5.4-0.7
			c-4.3-0.5-8.8-2.7-10.3-8.1c-1.7-6.2,2.5-12.6,10.2-14.7c4.3-1.2,9.3-0.7,13.4,1.6l-2.8,6.5c-3-1.2-5.6-1.7-8.6-0.8
			c-2.9,0.8-4.4,2.6-3.8,4.7c0.6,2.3,3.3,2.4,6.9,2.8l5.3,0.6c5,0.6,8.7,2.8,10.1,8.1c1.7,6.2-2,13-10.8,15.4
			c-4.9,1.3-10.5,0.9-15.3-1.6L451.9,626.4z"/>
		<path fill="#58595B" d="M474.6,590.2l8.1-3.4l15,35.6l-8.1,3.4L474.6,590.2z"/>
		<path fill="#58595B" d="M506.4,573.4c4.7-2.8,9.3-2.8,12.9-1.9l-1.3,7.1c-2.6-0.5-4.7-0.5-7.6,1.2c-5.1,3-6.3,9.3-2.4,15.9
			c4.1,6.8,9.6,8.9,15.8,5.2c1.3-0.8,2.5-2,2.9-3.1l-3.4-5.7l-5.5,3.3l-3.7-6.1l12.2-7.3l9.1,15.3c-1.1,3.5-4.1,7.9-8.7,10.7
			c-9,5.4-19.6,3.8-26.2-7.4C493.9,589.6,497.3,578.8,506.4,573.4z"/>
		<path fill="#58595B" d="M524.2,562.6l6.7-6l20.3,7.6l8.6,3.8l0.2-0.2c-3-2.8-7.2-6.4-10.2-9.8l-9.1-10.2l6.2-5.5l25.8,28.8l-6.7,6
			l-20.4-7.7l-8.4-3.8l-0.2,0.2c3.2,2.9,7.1,6.3,10.2,9.7l9.1,10.2l-6.2,5.6L524.2,562.6z"/>
	</g>
	<g opacity="0.8">
		<g>
			<path fill="#58595B" d="M405.3,314.8c-11.5,0.4-28.6,6.3-32.1,17.8l0,0c-3-10-21.4-16.4-38.3-10.1c-1.1,0.2-2.1,0.4-2.4,0.5
				c-3.3,1-4.6,3-3.7,6c0.9,3.2,3.3,4.3,7,3.2c1-0.3,2.3-0.8,4-1.5c0.1,0,0.1,0,0.2-0.1c15.3-4.2,22.3,1.8,25.6,8l1.9,60l1.1,35.5
				l-19.3,0.6c-0.4,0-0.8,0-1.1,0c-0.4,0-0.7,0-1,0.1l-0.4,0l0,0.1c-1.3,0.4-2,1.3-1.9,2.8c0,1.8,1.1,2.8,3.1,2.7
				c0.3,0,2.1-0.2,2.6-0.3c0.8-0.2,2.1-0.4,3-0.6l15.2-0.5l1.2,38.5c0,0.6,4.6,22.2-30.4,16.1c-1.2-0.2-2.7-0.5-4.2-1
				c-1.7-0.6-3.1-1-4.1-1.2c-3.8-0.8-6,0.4-6.7,3.6c-0.7,3.1,0.7,5,4.1,5.8c0.5,0.1,3.5,0.5,4.5,0.5c0.6,0,1.1,0,1.5,0.1
				c0.8,0.2,1.6,0.4,2.4,0.5c0,0,0.1,0,0.1,0l0,0c20.9,4.1,41.1-3.6,41.5-12.2l0.1,0c0.9,8.8,22.3,15.3,43.2,9.3
				c1.2-0.1,3.6-0.6,4.1-0.7c3.3-1,4.6-3,3.7-6c-0.9-3.2-3.3-4.3-7-3.2c-1,0.3-2.3,0.8-4,1.5c-1.7,0.7-3.5,1.1-4.8,1.4l0,0
				c-31.2,5.8-30-15-30-15l-1.2-38.5l14.3-0.4c0.9,0.1,2.2,0.3,3,0.4c0.6,0.1,2.3,0.2,2.6,0.2c2-0.1,3-1.1,2.9-2.9
				c-0.1-1.6-0.9-2.5-2.5-2.7l0,0l0,0c-0.3,0-0.6-0.1-1,0c-0.3,0-0.7,0-1.1,0.1l-18.3,0.6l-1.1-34.2c6.6,6.7,14.9,9.9,24.9,9.5
				c12.5-0.4,22.3-5.2,29.4-14.4c7.1-9.2,10.5-21.3,10-36.4c-0.4-14-4.3-25-11.6-33C426.7,317.1,417.2,314.5,405.3,314.8z
				 M425.1,387.2c-4.5,6.4-11.1,9.7-19.6,10c-5.7,0.2-10.6-1.1-14.5-3.8c-4-2.7-6.7-5.9-8.1-9.5c-1.4-3.6-2.3-9.4-2.5-17.3
				c0-0.6,0-1.4-0.1-2.5c0.1-1.3,0.1-2.2,0.1-2.7c-0.1-6.6,0.3-12.3,1.3-17c1-5.3,3.7-9.7,8.1-13.3c4.4-3.6,9.4-5.5,15.1-5.7
				c16.9-0.5,25.8,11.1,26.5,34.8C431.7,371.9,429.6,380.8,425.1,387.2z"/>
		</g>
		<g>
			<path fill="#58595B" d="M465.2,378.4c-2.8,0.1-5.2,1.2-7.1,3.2c-1.9,2.1-2.8,4.5-2.7,7.3c0.1,2.8,1.1,5.2,3.2,7.2
				c2,1.9,4.4,2.9,7.3,2.8c2.8-0.1,5.2-1.2,7.1-3.2c1.9-2.1,2.8-4.5,2.7-7.3c-0.1-2.8-1.1-5.2-3.2-7.2
				C470.4,379.3,468,378.3,465.2,378.4z"/>
		</g>
	</g>
	<g opacity="0.8">
		<path fill="#58595B" d="M399.5,569.8c-88.8,0-161-72.2-161-161s72.2-161,161-161c88.8,0,161,72.2,161,161S488.2,569.8,399.5,569.8
			z M399.5,248.9c-88.2,0-160,71.8-160,160c0,88.2,71.8,160,160,160s160-71.8,160-160C559.4,320.6,487.7,248.9,399.5,248.9z"/>
	</g>
</g>
<g id="invisible" display="none">
	<g display="inline">
		<path fill="#58595B" d="M577.2,466l14.7,0.3l-0.4,1l-8.7-0.2l-4.8-0.1L578,467l3.4,3.4l6.2,6.1l-0.4,1l-10.5-10.4L577.2,466z"/>
		<path fill="#58595B" d="M596.2,484l7.1-5l-5.8-5.6l1.4-1.6l6.4,5.1l3.8-7.6l2,0.9l-2.8,7.9l8,1.2l-0.2,2.1l-8-0.2l1.4,8.5
			l-2.3,0.5l-2.1-8.5l-7.7,4.3L596.2,484z"/>
		<path fill="#58595B" d="M635.2,491.8l-14.7-0.3l0.4-1l8.7,0.2l4.8,0.1l0.1-0.1l-3.4-3.4l-6.2-6.1l0.4-1l10.5,10.4L635.2,491.8z"/>
	</g>
	<g display="inline">
		<path fill="#58595B" d="M163.1,488.4l11.2-9.6l0.3,1l-6.7,5.6l-3.7,3.1l0,0.1l4.8,0.2l8.7,0.4l0.3,1l-14.7-0.8L163.1,488.4z"/>
		<path fill="#58595B" d="M189.2,489.3l2-8.4l-8-0.4l0-2.2l8.1-0.4l-2.2-8.2l2.1-0.7l3.1,7.7l6.8-4.4l1.3,1.7l-6.2,5.1l6.7,5.5
			l-1.3,1.9l-7.2-4.9l-2.9,8.4L189.2,489.3z"/>
		<path fill="#58595B" d="M223.6,469.3l-11.2,9.6l-0.3-1l6.7-5.6l3.7-3.1l0-0.1l-4.8-0.2l-8.7-0.4l-0.3-1l14.7,0.8L223.6,469.3z"/>
	</g>
</g>
</svg>
